<?xml version="1.0" standalone="no"?>
<!DOCTYPE svg PUBLIC "-//W3C//DTD SVG 20010904//EN"
 "http://www.w3.org/TR/2001/REC-SVG-20010904/DTD/svg10.dtd">
<svg version="1.0" xmlns="http://www.w3.org/2000/svg"
 width="3425.000000pt" height="3425.000000pt" viewBox="0 0 3425.000000 3425.000000"
 preserveAspectRatio="xMidYMid meet">
<metadata>
Created by potrace 1.16, written by Peter Selinger 2001-2019
</metadata>
<g transform="translate(0.000000,3425.000000) scale(0.100000,-0.100000)"
fill="#000000" stroke="none">
<path d="M16420 31819 c-3468 -177 -6644 -1496 -9214 -3828 -361 -327 -900
-882 -1230 -1267 -2054 -2390 -3276 -5327 -3515 -8449 -36 -461 -44 -739 -38
-1315 8 -863 63 -1490 198 -2295 339 -2013 1094 -3927 2224 -5640 876 -1328
1988 -2529 3253 -3512 2896 -2253 6491 -3330 10177 -3047 2372 181 4648 934
6675 2207 1748 1098 3263 2574 4417 4302 565 847 1064 1798 1438 2746 536
1354 868 2798 979 4254 28 357 36 543 42 945 23 1446 -170 2899 -571 4295
-1030 3583 -3433 6679 -6665 8587 -414 245 -1022 559 -1455 752 -1493 667
-3046 1072 -4680 1221 -435 39 -621 47 -1240 50 -341 2 -699 -1 -795 -6z
m1340 -1199 c1763 -89 3451 -502 5010 -1225 3156 -1464 5640 -4089 6916 -7311
1339 -3383 1249 -7191 -248 -10499 -100 -221 -322 -670 -425 -859 -1425 -2621
-3647 -4691 -6348 -5914 -3308 -1497 -7116 -1587 -10499 -248 -3074 1217
-5623 3548 -7106 6496 -168 334 -241 492 -375 805 -510 1193 -849 2493 -989
3795 -63 583 -80 951 -73 1620 5 529 11 649 47 1060 212 2373 1052 4642 2439
6595 998 1405 2274 2624 3721 3555 1710 1101 3639 1799 5650 2045 342 41 617
64 1080 88 147 8 1028 6 1200 -3z"/>
<path d="M14680 22379 c-744 -75 -1400 -342 -1947 -793 -59 -49 -186 -168
-280 -263 l-173 -174 0 485 0 486 -1160 0 -1160 0 0 -5159 0 -5159 543 -6
c298 -3 822 -8 1165 -11 l623 -5 -3 3347 c-3 3152 -2 3355 15 3463 62 411 215
713 498 985 253 243 546 384 959 462 77 14 149 17 375 18 247 0 294 -3 395
-22 822 -157 1356 -730 1429 -1533 8 -78 11 -1181 11 -3406 l0 -3291 378 -7
c207 -3 731 -9 1165 -12 l787 -7 0 3358 c0 2990 2 3369 16 3464 115 787 691
1337 1513 1446 125 17 450 19 571 5 314 -39 593 -140 836 -301 142 -95 344
-294 433 -428 148 -223 239 -472 276 -754 13 -103 15 -376 15 -2170 0 -1129 3
-2622 7 -3318 l6 -1266 456 -7 c251 -3 772 -9 1159 -12 l702 -7 -3 3464 c-3
3773 0 3536 -58 3939 -168 1175 -716 2086 -1581 2630 -144 91 -437 236 -600
298 -844 320 -1827 329 -2733 27 -428 -142 -779 -331 -1128 -607 -118 -93
-389 -363 -462 -461 -27 -36 -53 -66 -56 -66 -3 -1 -43 47 -89 107 -107 135
-312 347 -455 467 -488 411 -1075 678 -1710 777 -151 23 -575 33 -735 17z"/>
</g>
</svg>
